<?xml version="1.0" encoding="utf-8"?>
<!-- Generator: Adobe Illustrator 20.1.0, SVG Export Plug-In . SVG Version: 6.00 Build 0)  -->
<svg version="1.1" id="Ebene_1" xmlns="http://www.w3.org/2000/svg" xmlns:xlink="http://www.w3.org/1999/xlink" x="0px" y="0px"
	 viewBox="0 50 100 50" style="enable-background:new 0 50 100 50;" xml:space="preserve">
<style type="text/css">
	.st0{fill:#FFFFFF;}
	.st1{clip-path:url(#SVGID_2_);}
	.st2{fill-rule:evenodd;clip-rule:evenodd;fill:#FFFFFF;}
	.st3{fill-rule:evenodd;clip-rule:evenodd;fill:#595A5C;fill-opacity:0.1;}
	.st4{fill:#595A5C;}
	.st5{clip-path:url(#SVGID_4_);}
	.st6{clip-path:url(#SVGID_6_);}
	.st7{clip-path:url(#SVGID_8_);fill:none;stroke:#FFFFFF;stroke-miterlimit:10;}
	.st8{fill:#575756;}
	.st9{clip-path:url(#SVGID_10_);}
	.st10{clip-path:url(#SVGID_12_);}
	.st11{opacity:0.5;fill-rule:evenodd;clip-rule:evenodd;fill:#575756;}
	.st12{clip-path:url(#SVGID_14_);}
	.st13{fill:#43403E;}
	.st14{clip-path:url(#SVGID_16_);fill:#FFFFFF;}
	.st15{clip-path:url(#SVGID_18_);fill:#FFFFFF;}
	.st16{clip-path:url(#SVGID_20_);fill:#FFFFFF;}
	.st17{clip-path:url(#SVGID_22_);fill:#FFFFFF;}
	.st18{fill:#55514F;}
	.st19{fill-rule:evenodd;clip-rule:evenodd;fill:#595A5C;}
	.st20{fill-rule:evenodd;clip-rule:evenodd;fill:#DB2329;}
	.st21{fill:#E52629;}
	.st22{fill:#932D88;}
	.st23{fill:none;}
	.st24{fill-rule:evenodd;clip-rule:evenodd;fill:#E52629;}
	.st25{fill:#323189;}
	.st26{fill:#BBCF20;}
	.st27{fill:#D60F81;}
	.st28{fill:#DC7519;}
	.st29{fill:#010202;}
	.st30{fill-rule:evenodd;clip-rule:evenodd;fill:#010202;}
	.st31{fill-rule:evenodd;clip-rule:evenodd;fill:#932D88;}
	.st32{fill:#F8F7F7;}
	.st33{fill-rule:evenodd;clip-rule:evenodd;fill:#A6C83F;}
	.st34{fill:#91D4F4;}
	.st35{fill-rule:evenodd;clip-rule:evenodd;fill:#29ABE3;}
	.st36{fill:#231F20;}
	.st37{fill-rule:evenodd;clip-rule:evenodd;fill:#BBBDC0;}
	.st38{fill-rule:evenodd;clip-rule:evenodd;fill:#09A650;}
	.st39{fill:#29ABE3;}
	.st40{fill:#A6C83F;}
	.st41{opacity:0.5;}
	.st42{opacity:0.5;fill-rule:evenodd;clip-rule:evenodd;fill:#595A5C;}
	.st43{fill:#DB2329;}
	.st44{opacity:0.5;fill:none;stroke:#595A5C;stroke-width:0.5;stroke-miterlimit:10;}
</style>
<g>
	<path class="st4" d="M93.8,87v-2.7L86,59.9H38.1l-0.8-3.5l-0.3-1.2l-0.7-0.1l-9.4-1l0,0.8l7.7,2.2L34,59.9H34v0.4l-0.1,0.3H34v23.8
		h56.8v1.3H33v6.8h30.6c1-2.9,3.8-5,7-5c3.2,0,5.9,2.1,7,5h0.7c1-2.9,3.8-5,7-5c3.2,0,5.9,2,6.9,4.9c1.3-0.4,2.3-1.6,2.3-3.1V89
		C94.5,88.2,94.2,87.5,93.8,87z M41.7,82.1V66.3l4.6,15.8H41.7z M55.4,82.1l-5.8-20h4.7l5.8,20H55.4z M68.2,82.1l-5.8-20H67l5.8,20
		H68.2z M80.8,82.1l-5.8-20h4.7l5.8,20H80.8z"/>
	<ellipse class="st4" cx="85.5" cy="94.3" rx="5.5" ry="5.7"/>
	<ellipse class="st4" cx="70.8" cy="94.3" rx="5.5" ry="5.7"/>
	<ellipse class="st4" cx="19.1" cy="94.3" rx="5.5" ry="5.7"/>
	<path class="st4" d="M29.4,59.1H11.1c-0.6,0-2.1,0-2.1,1.1L5.5,75.8v3.6h1v6h-1v5.5c0,0.6,0.5,1.1,1.1,1.1h5.5
		c1.2-2.6,3.8-4.5,6.8-4.5c3,0,5.6,1.8,6.8,4.5h3.7c0.6,0,1.1-0.5,1.1-3.3V60.2C30.4,59.2,30,59.1,29.4,59.1z M12.2,89.4H9.4v-2.7
		h5.4C14.7,86.7,13,87.9,12.2,89.4z M27.1,73.6h-17L11.8,62h15.3V73.6z"/>
</g>
</svg>
