<?xml version="1.0" encoding="utf-8"?>
<!-- Generator: Adobe Illustrator 20.1.0, SVG Export Plug-In . SVG Version: 6.00 Build 0)  -->
<svg version="1.1" id="Ebene_1" xmlns="http://www.w3.org/2000/svg" xmlns:xlink="http://www.w3.org/1999/xlink" x="0px" y="0px"
	 viewBox="0 0 100 100" style="enable-background:new 0 0 100 100;" xml:space="preserve">
<style type="text/css">
	.st0{fill:#FFFFFF;}
	.st1{clip-path:url(#SVGID_2_);}
	.st2{fill-rule:evenodd;clip-rule:evenodd;fill:#FFFFFF;}
	.st3{fill-rule:evenodd;clip-rule:evenodd;fill:#595A5C;fill-opacity:0.1;}
	.st4{fill:#595A5C;}
	.st5{clip-path:url(#SVGID_4_);}
	.st6{clip-path:url(#SVGID_6_);}
	.st7{clip-path:url(#SVGID_8_);fill:none;stroke:#FFFFFF;stroke-miterlimit:10;}
	.st8{fill:#575756;}
	.st9{clip-path:url(#SVGID_10_);}
	.st10{clip-path:url(#SVGID_12_);}
	.st11{opacity:0.5;fill-rule:evenodd;clip-rule:evenodd;fill:#575756;}
	.st12{clip-path:url(#SVGID_14_);}
	.st13{fill:#43403E;}
	.st14{clip-path:url(#SVGID_16_);fill:#FFFFFF;}
	.st15{clip-path:url(#SVGID_18_);fill:#FFFFFF;}
	.st16{clip-path:url(#SVGID_20_);fill:#FFFFFF;}
	.st17{clip-path:url(#SVGID_22_);fill:#FFFFFF;}
	.st18{fill:#55514F;}
	.st19{fill-rule:evenodd;clip-rule:evenodd;fill:#595A5C;}
	.st20{fill-rule:evenodd;clip-rule:evenodd;fill:#DB2329;}
	.st21{fill:#E52629;}
	.st22{fill:#932D88;}
	.st23{fill:none;}
	.st24{fill-rule:evenodd;clip-rule:evenodd;fill:#E52629;}
	.st25{fill:#323189;}
	.st26{fill:#BBCF20;}
	.st27{fill:#D60F81;}
	.st28{fill:#DC7519;}
	.st29{fill:#010202;}
	.st30{fill-rule:evenodd;clip-rule:evenodd;fill:#010202;}
	.st31{fill-rule:evenodd;clip-rule:evenodd;fill:#932D88;}
	.st32{fill:#F8F7F7;}
	.st33{fill-rule:evenodd;clip-rule:evenodd;fill:#A6C83F;}
	.st34{fill:#91D4F4;}
	.st35{fill-rule:evenodd;clip-rule:evenodd;fill:#29ABE3;}
	.st36{fill:#231F20;}
	.st37{fill-rule:evenodd;clip-rule:evenodd;fill:#BBBDC0;}
	.st38{fill-rule:evenodd;clip-rule:evenodd;fill:#09A650;}
	.st39{fill:#29ABE3;}
	.st40{fill:#A6C83F;}
	.st41{opacity:0.5;}
	.st42{opacity:0.5;fill-rule:evenodd;clip-rule:evenodd;fill:#595A5C;}
	.st43{fill:#DB2329;}
</style>
<path class="st0" d="M64.1,88.7l-40.6-7.2L9.5,42.9l26.5-31.5l40.6,7.2l14.1,38.7L64.1,88.7z"/>
<g>
	<g>
		<rect x="41.3" y="57.8" class="st36" width="17.7" height="29.5"/>
	</g>
	<g>
		<path class="st37" d="M22.9,76.8c1.9,2.8,4,5.7,5.8,8.7l12.7,2.3c0.8,0,1.6,0,2.5,0V56.4H11.4l4.5,11.1
			C18.4,70.4,20.7,73.6,22.9,76.8z"/>
	</g>
	<g>
		<path class="st37" d="M55.4,56.4v31.1c3.6-0.1,7.2-0.3,10.7-0.3l18-20.6c1.3-3.4,2.4-6.9,3.7-10.3H55.4z"/>
	</g>
	<g>
		<path class="st38" d="M44.4,40.4c0-2.6-1.9-4.3-1.9-7.2c0-5.2,5.6-4.9,5.6,0c0,2-0.5,3.5-1.5,4.7c-0.3,0.4-0.7,1.1-1.1,1.4
			C45.4,39.3,44.4,40.1,44.4,40.4 M55.6,41.4c2.4,2.1,4.9,4.2,7.5,6c1.4,1,4.5,0,4.5-2c0-3.3-2.5-4.9-5.4-5.6
			c-2.1-0.6-5.1,0.7-6.8,1.3L55.6,41.4z M41,43.6c-5.1-3.9-14.9,2.3-9,6.3c1.9,1.3,5.2-0.6,6.1-1.9c0.6-0.9,1.2-1.5,1.8-2.5
			C40.1,45.1,40.6,43.6,41,43.6z M38.5,38.3c-1.4-2.4-5-5.1-7.8-5.1c-4.8,0-3.8,5.1-0.5,6.5c2,0.9,3.6-0.1,5.4-0.2
			C36.8,39.4,38.5,39.7,38.5,38.3z M53.4,36c0-1.7-1-3.1-1-4.7c0-2.8,1.6-5.3,3.6-6.5c3.2-1.9,4.3,4.6,3,6.5c-0.9,1.3-1.4,2.4-2.6,3
			C55.8,34.6,53.5,35.6,53.4,36z M48.9,60.5c-0.9-4-4.3-16-7.2-18.5c-4.6-3.8,0.3-4.1,2.6,0.9c2,4.5,2.8,5.5,5.6,0.5
			c2.1-3.6,2.2-4.5,6-6.4c7.4-3.7-4.5,7.1-5.4,9.1c-3,6.8,0.5,14.2,0.5,22.5c0,2.3-0.5,9.7-0.5,3.6C50.6,68,49.2,63.9,48.9,60.5z"/>
	</g>
</g>
<path class="st43" d="M65.4,92.3l-44.3-7.8L5.7,42.2L34.6,7.7l44.3,7.8l15.4,42.3L65.4,92.3z M25.8,78.9l37.1,6.5l24.2-28.9
	L74.2,21.1l-37.1-6.5L12.9,43.5L25.8,78.9z"/>
</svg>
