<?xml version="1.0" encoding="utf-8"?>
<!-- Generator: Adobe Illustrator 20.1.0, SVG Export Plug-In . SVG Version: 6.00 Build 0)  -->
<svg version="1.1" id="Ebene_1" xmlns="http://www.w3.org/2000/svg" xmlns:xlink="http://www.w3.org/1999/xlink" x="0px" y="0px"
	 viewBox="0 0 220 114.8" style="enable-background:new 0 0 220 114.8;" xml:space="preserve">
<style type="text/css">
	.st0{fill:#FFFFFF;}
	.st1{clip-path:url(#SVGID_2_);}
	.st2{fill-rule:evenodd;clip-rule:evenodd;fill:#FFFFFF;}
	.st3{fill-rule:evenodd;clip-rule:evenodd;fill:#595A5C;fill-opacity:0.1;}
	.st4{fill:#595A5C;}
	.st5{clip-path:url(#SVGID_4_);}
	.st6{clip-path:url(#SVGID_6_);}
	.st7{clip-path:url(#SVGID_8_);fill:none;stroke:#FFFFFF;stroke-miterlimit:10;}
	.st8{fill:#575756;}
	.st9{clip-path:url(#SVGID_10_);}
	.st10{clip-path:url(#SVGID_12_);}
	.st11{opacity:0.5;fill-rule:evenodd;clip-rule:evenodd;fill:#575756;}
	.st12{clip-path:url(#SVGID_14_);}
	.st13{fill:#43403E;}
	.st14{clip-path:url(#SVGID_16_);fill:#FFFFFF;}
	.st15{clip-path:url(#SVGID_18_);fill:#FFFFFF;}
	.st16{clip-path:url(#SVGID_20_);fill:#FFFFFF;}
	.st17{clip-path:url(#SVGID_22_);fill:#FFFFFF;}
	.st18{fill:#55514F;}
	.st19{fill-rule:evenodd;clip-rule:evenodd;fill:#595A5C;}
	.st20{fill-rule:evenodd;clip-rule:evenodd;fill:#DB2329;}
	.st21{fill:#E52629;}
	.st22{fill:#932D88;}
	.st23{fill:none;}
	.st24{fill-rule:evenodd;clip-rule:evenodd;fill:#E52629;}
	.st25{fill:#323189;}
	.st26{fill:#BBCF20;}
	.st27{fill:#D60F81;}
	.st28{fill:#DC7519;}
	.st29{fill:#010202;}
	.st30{fill-rule:evenodd;clip-rule:evenodd;fill:#010202;}
	.st31{fill-rule:evenodd;clip-rule:evenodd;fill:#932D88;}
	.st32{fill:#F8F7F7;}
	.st33{fill-rule:evenodd;clip-rule:evenodd;fill:#A6C83F;}
	.st34{fill:#91D4F4;}
	.st35{fill-rule:evenodd;clip-rule:evenodd;fill:#29ABE3;}
	.st36{fill:#231F20;}
	.st37{fill-rule:evenodd;clip-rule:evenodd;fill:#BBBDC0;}
	.st38{fill-rule:evenodd;clip-rule:evenodd;fill:#09A650;}
	.st39{fill:#29ABE3;}
	.st40{fill:#A6C83F;}
	.st41{opacity:0.5;}
	.st42{opacity:0.5;fill-rule:evenodd;clip-rule:evenodd;fill:#595A5C;}
	.st43{fill:#DB2329;}
</style>
<g>
	<polyline class="st19" points="10,86.9 210,65.7 210,83.6 10,104.8 10,86.9 	"/>
	<g>
		<path class="st0" d="M20.3,100.4v-11l3-0.3c1.3-0.1,2.3,0,2.9,0.4c0.6,0.4,0.9,1.1,0.9,2.1c0,1.2-0.4,2.1-1.2,2.9
			c-0.8,0.7-1.9,1.2-3.3,1.3l-0.7,0.1v4.4L20.3,100.4z M21.8,94.7l0.6-0.1c0.9-0.1,1.6-0.4,2.1-0.9c0.5-0.5,0.8-1.1,0.8-1.9
			c0-0.7-0.2-1.1-0.6-1.3c-0.4-0.2-1.1-0.3-2-0.2l-1,0.1V94.7z"/>
		<path class="st0" d="M28.7,99.5v-11l6.1-0.7V89l-4.6,0.5v3.7l3.8-0.4v1.1l-3.8,0.4v5L28.7,99.5z"/>
		<path class="st0" d="M36.8,98.6v-11l1.6-0.2v9.8l4.9-0.5v1.2L36.8,98.6z"/>
		<path class="st0" d="M52.1,97L50.9,94l-4.6,0.5l-1.2,3.2l-1.4,0.2L48,86.4l1.5-0.2l4.3,10.5L52.1,97z M50.5,92.9l-1.9-4.5
			l-1.9,4.9L50.5,92.9z"/>
		<path class="st0" d="M57.6,96.7c-0.7,0.1-1.7,0-2.8-0.2v-1.5c1.2,0.4,2.3,0.6,3,0.5c0.6-0.1,1.1-0.3,1.5-0.6
			c0.4-0.4,0.6-0.8,0.6-1.3c0-0.4-0.1-0.8-0.4-1.1c-0.2-0.3-0.7-0.6-1.4-0.9l-0.8-0.4c-0.9-0.4-1.6-0.9-2-1.3
			c-0.4-0.4-0.6-1-0.6-1.6c0-0.8,0.3-1.6,0.9-2.2c0.6-0.6,1.4-1,2.3-1.1c0.8-0.1,1.7,0,2.7,0.1v1.4c-1.2-0.3-2-0.5-2.6-0.4
			c-0.5,0.1-1,0.2-1.3,0.6c-0.4,0.3-0.5,0.7-0.5,1.1c0,0.4,0.1,0.7,0.4,0.9c0.3,0.3,0.7,0.5,1.4,0.9l0.8,0.4c0.9,0.4,1.6,0.9,2,1.3
			c0.4,0.4,0.6,1,0.6,1.7c0,1-0.4,1.8-1.1,2.4C59.6,96.1,58.7,96.5,57.6,96.7z"/>
		<path class="st0" d="M66.2,95.5v-9.8l-3.9,0.4v-1.2l9.3-1v1.2l-3.9,0.4v9.8L66.2,95.5z"/>
		<path class="st0" d="M73.2,94.7v-11l6.1-0.7v1.2l-4.6,0.5v3.5l3.8-0.4V89l-3.8,0.4v4l4.9-0.5V94L73.2,94.7z"/>
		<path class="st0" d="M81.4,93.8v-11l3.3-0.4c1.1-0.1,1.9,0,2.4,0.4c0.6,0.4,0.8,1,0.8,1.9c0,1.5-0.7,2.6-2.2,3.4l3.7,4.7l-1.9,0.2
			l-3.1-4.3L83,89v4.6L81.4,93.8z M83,87.9l0.5-0.1c2-0.2,2.9-1.1,2.9-2.6c0-1.1-0.8-1.6-2.5-1.4l-1,0.1V87.9z"/>
		<path class="st0" d="M91,92.8v-11l6.1-0.7v1.2l-4.6,0.5v3.7l3.8-0.4v1.1l-3.8,0.4v5L91,92.8z"/>
		<path class="st0" d="M99.1,81l1.6-0.2v6.9c0,1.1,0.2,1.9,0.6,2.3c0.4,0.5,1.1,0.6,1.9,0.5c0.9-0.1,1.5-0.4,1.9-0.9
			c0.4-0.5,0.5-1.3,0.5-2.5v-7l1.4-0.1v7c0,1.5-0.3,2.6-0.9,3.4c-0.6,0.7-1.6,1.2-2.9,1.3c-1.4,0.1-2.4-0.1-3-0.7
			c-0.7-0.6-1-1.7-1-3.2V81z"/>
		<path class="st0" d="M117.9,89.6c-1.3,0.5-2.5,0.8-3.5,0.9c-1.7,0.2-3.1-0.2-4-1.1c-0.9-0.9-1.4-2.3-1.4-4.1
			c0-1.8,0.5-3.3,1.4-4.4c0.9-1.1,2.3-1.8,4-1.9c1.1-0.1,2.3-0.1,3.5,0.1v1.4c-1.5-0.4-2.7-0.5-3.5-0.4c-1.2,0.1-2.1,0.6-2.8,1.5
			c-0.7,0.9-1,2-1,3.5c0,1.4,0.4,2.5,1.1,3.3c0.7,0.7,1.7,1,3,0.9c0.5-0.1,1.1-0.2,1.7-0.5v-3.6l1.5-0.2V89.6z"/>
		<path class="st0" d="M120.7,89.6v-11l6.1-0.7v1.2l-4.6,0.5v3.5l3.8-0.4v1.1l-3.8,0.4v4l4.9-0.5V89L120.7,89.6z"/>
		<path class="st0" d="M128.9,88.8v-11l1.5-0.2l5.5,7.9V77l1.3-0.1v11l-1.5,0.2l-5.5-7.9v8.5L128.9,88.8z"/>
		<path class="st0" d="M140.1,87.6v-11l2.2-0.2l3,8.2l3.1-8.8l1.9-0.2v11l-1.5,0.2v-8.9l-3,8.5l-1.5,0.2l-2.9-7.9v9L140.1,87.6z"/>
		<path class="st0" d="M157.6,86c-1.5,0.2-2.7-0.2-3.7-1.2c-0.9-1-1.4-2.3-1.4-4c0-1.7,0.5-3.2,1.4-4.3c0.9-1.1,2.2-1.8,3.7-2
			c1.6-0.2,2.8,0.2,3.7,1.2c0.9,0.9,1.4,2.3,1.4,4c0,1.8-0.5,3.2-1.4,4.4C160.5,85.2,159.2,85.8,157.6,86z M157.6,84.8
			c1.1-0.1,2-0.6,2.6-1.5c0.6-0.9,0.9-2,0.9-3.5c0-1.4-0.3-2.5-0.9-3.3c-0.6-0.7-1.5-1.1-2.6-0.9c-1.1,0.1-1.9,0.6-2.6,1.5
			c-0.6,0.9-0.9,2-0.9,3.5c0,1.4,0.3,2.5,0.9,3.3C155.7,84.6,156.6,84.9,157.6,84.8z M155.6,74v-1.3l1.3-0.1v1.3L155.6,74z
			 M158.5,73.7v-1.3l1.3-0.1v1.3L158.5,73.7z"/>
		<path class="st0" d="M165,84.9v-11l3.3-0.4c1.1-0.1,1.9,0,2.4,0.4c0.6,0.4,0.8,1,0.8,1.9c0,1.5-0.7,2.6-2.2,3.4l3.7,4.7l-1.9,0.2
			L168,80l-1.5,0.2v4.6L165,84.9z M166.5,78.9l0.5-0.1c2-0.2,2.9-1.1,2.9-2.6c0-1.1-0.8-1.6-2.5-1.4l-1,0.1V78.9z"/>
		<path class="st0" d="M177.2,83.6v-9.8l-3.9,0.4v-1.2l9.3-1v1.2l-3.9,0.4v9.8L177.2,83.6z"/>
		<path class="st0" d="M184.2,82.9v-11l6.1-0.7v1.2l-4.6,0.5v3.5l3.8-0.4v1.1l-3.8,0.4v4l4.9-0.5v1.2L184.2,82.9z"/>
		<path class="st0" d="M192.4,82V71l1.6-0.2v9.8l4.9-0.5v1.2L192.4,82z"/>
	</g>
	<path class="st19" d="M50.9,38l1.4,13.2c0.2,2.2,0.8,3.8,1.8,4.6c1,0.9,2.4,1.2,4.4,1c1.9-0.2,3.3-0.8,4.1-1.9
		c0.8-1.1,1-2.7,0.8-4.9l-1.4-13.2l7.3-0.7l1.3,13.2c0.5,4.4-0.2,7.8-2.1,10.1c-1.9,2.3-5,3.7-9.3,4.1c-4.4,0.5-7.8-0.3-10.1-2.1
		c-2.3-1.9-3.7-5-4.1-9.5l-1.4-13.2L50.9,38"/>
	<path class="st19" d="M94.1,46.2c-0.2-2.2-1-3.9-2.2-5.1c-1.3-1.2-2.9-1.7-4.8-1.5c-2,0.2-3.5,1-4.5,2.4c-1,1.4-1.4,3.2-1.2,5.4
		c0.2,2.2,1,3.9,2.2,5.1c1.2,1.1,2.9,1.6,4.9,1.4c2-0.2,3.5-1,4.5-2.4C94,50.3,94.4,48.5,94.1,46.2 M102,57.8
		c0.3,2.7,0.3,4.5,0.1,5.6c-0.2,1.1-0.7,2.1-1.3,3c-1,1.3-2.3,2.3-3.9,3c-1.6,0.7-3.7,1.2-6.1,1.5c-4.1,0.4-7.3,0.1-9.5-1
		c-2.3-1.1-3.6-2.9-4.1-5.6l8-0.8c0.2,1,0.7,1.6,1.6,2c0.8,0.4,2,0.5,3.5,0.3c2-0.2,3.4-0.9,4.1-2c0.8-1.1,1-2.9,0.8-5.3L94.7,55
		c-0.8,1.7-1.9,2.9-3.2,3.8c-1.3,0.9-2.9,1.4-4.8,1.6c-3.5,0.4-6.3-0.6-8.7-2.8c-2.3-2.2-3.7-5.4-4.1-9.5c-0.4-4.2,0.2-7.5,2-10.1
		c1.8-2.6,4.4-4,8-4.4c1.8-0.2,3.5,0.1,5,0.8c1.5,0.7,2.8,1.8,4,3.4l-0.4-4.1l6.9-0.7L102,57.8z"/>
	<polyline class="st19" points="107.6,57.6 105,32.4 112.3,31.7 114.9,56.9 107.6,57.6 	"/>
	<polyline class="st19" points="119.6,47 119,40.5 133.3,39.1 134,45.5 119.6,47 	"/>
	<path class="st19" d="M141.2,54.2l-2-19.4l-3.3,0.3l-0.6-5.7l3.3-0.3l-0.6-5.7c-0.3-3.4,0.2-5.9,1.6-7.5c1.4-1.6,3.9-2.6,7.5-3
		c0.4,0,0.9-0.1,1.4,0c0.5,0,1.2,0.1,2.1,0.2l0.6,5.8c-0.5-0.2-0.9-0.3-1.3-0.4c-0.4-0.1-0.9-0.1-1.3,0c-1.3,0.1-2.2,0.6-2.6,1.3
		c-0.5,0.7-0.6,1.9-0.5,3.6l0.5,5l4.7-0.5l0.6,5.7l-4.7,0.5l2,19.4L141.2,54.2"/>
	<polyline class="st19" points="158.4,52.4 155.9,27.3 163.1,26.5 165.7,51.7 158.4,52.4 	"/>
	<path class="st20" d="M173.7,62.4l-9.9,1l14.4-25.9L168.5,26l9.1-0.9l3,4.4c0.4,0.6,0.7,1.2,1,1.8c0.3,0.6,0.6,1.3,0.9,1.9
		c0.1-0.7,0.3-1.3,0.5-2c0.2-0.7,0.5-1.3,0.8-2.1l8.3-18l10.2-1l-15,26.4l10.4,12l-9.1,0.9l-3.5-4.9c-0.4-0.6-0.8-1.2-1.1-1.8
		c-0.3-0.6-0.6-1.2-0.9-1.9c-0.1,0.7-0.3,1.4-0.5,2c-0.2,0.6-0.5,1.3-0.9,2.1L173.7,62.4"/>
	<path class="st19" d="M21.5,78l1.7-28.7l-4.7,0.5l0.5-8.5l4.7-0.5l0.5-8.4c0.3-5,1.6-8.7,4-11.1c2.4-2.4,6.2-3.8,11.4-4.4
		c3.1-0.3,6.4,0.3,9.3,1.1l1,9.9c-2.7-1.3-6.3-3-9.6-2.7c-1.9,0.2-3.2,0.8-4.1,1.9c-0.9,1.1-1.4,2.8-1.5,5.3l-0.4,7.3l6.3-0.7
		l0.9,8.3l-7.7,0.8l-1.7,28.7L21.5,78"/>
	<path class="st19" d="M103.3,22.2c-0.1-1.2,0.2-2.2,1-3.1c0.7-0.9,1.7-1.4,2.9-1.6c1.2-0.1,2.2,0.2,3.2,0.9
		c0.9,0.7,1.5,1.7,1.6,2.9c0.1,1.2-0.2,2.2-1,3.2c-0.8,0.9-1.7,1.5-2.9,1.6c-1.2,0.1-2.2-0.2-3.1-1C104,24.3,103.4,23.3,103.3,22.2
		 M107.1,16.5c2.9-0.3,5.5,1.8,5.8,4.7c0.3,2.9-1.8,5.5-4.7,5.8c-2.9,0.3-5.5-1.8-5.8-4.7C102.1,19.4,104.2,16.8,107.1,16.5z"/>
	<path class="st19" d="M154.2,17c-0.1-1.2,0.2-2.2,1-3.1c0.7-0.9,1.7-1.4,2.9-1.6c1.2-0.1,2.2,0.2,3.2,0.9c0.9,0.7,1.5,1.7,1.6,2.9
		c0.1,1.2-0.2,2.2-1,3.2c-0.8,0.9-1.7,1.5-2.9,1.6c-1.2,0.1-2.2-0.2-3.1-1C154.8,19.1,154.3,18.1,154.2,17 M157.9,11.3
		c2.9-0.3,5.5,1.8,5.8,4.7c0.3,2.9-1.8,5.5-4.7,5.8c-2.9,0.3-5.5-1.8-5.8-4.7C152.9,14.2,155,11.6,157.9,11.3z"/>
	<g>
		<path class="st4" d="M180.9,61.4l-0.2-1.6l1.6-0.2l0.2,1.6L180.9,61.4z"/>
		<path class="st4" d="M189.5,60.5l-0.1-1.3c-0.4,1-1.1,1.6-2.2,1.7c-0.8,0.1-1.5-0.2-2.1-0.7c-0.5-0.6-0.9-1.4-1-2.4
			c-0.1-1.2,0.1-2.1,0.5-2.9c0.5-0.8,1.2-1.2,2-1.3c0.8-0.1,1.5,0.2,2.1,0.7l-0.4-4l1.3-0.1l1,10.1L189.5,60.5z M189,55.2
			c-0.7-0.5-1.4-0.7-1.9-0.7c-1.2,0.1-1.7,1.1-1.5,3c0.2,1.6,0.8,2.4,1.9,2.3c0.7-0.1,1.3-0.5,1.9-1.4L189,55.2z"/>
		<path class="st4" d="M198.4,59.4c-0.8,0.3-1.5,0.5-2.1,0.6c-1,0.1-1.9-0.2-2.6-0.8c-0.7-0.6-1.1-1.5-1.2-2.6
			c-0.1-1.1,0.1-2,0.6-2.7c0.5-0.7,1.2-1.1,2.1-1.2c0.8-0.1,1.5,0.1,2,0.7c0.5,0.6,0.8,1.4,0.9,2.5l0,0.4l-4.4,0.4
			c0.4,1.6,1.2,2.4,2.7,2.2c0.5-0.1,1.2-0.3,1.9-0.6L198.4,59.4z M193.7,55.8l3.1-0.3c-0.1-1.3-0.7-1.9-1.6-1.8
			C194.2,53.8,193.7,54.5,193.7,55.8z"/>
	</g>
</g>
</svg>
