<?xml version="1.0" encoding="utf-8"?>
<!-- Generator: Adobe Illustrator 20.1.0, SVG Export Plug-In . SVG Version: 6.00 Build 0)  -->
<svg version="1.1" id="Ebene_1" xmlns="http://www.w3.org/2000/svg" xmlns:xlink="http://www.w3.org/1999/xlink" x="0px" y="0px"
	 viewBox="0 0 100 100" style="enable-background:new 0 0 100 100;" xml:space="preserve">
<style type="text/css">
	.st0{fill:#FFFFFF;}
	.st1{clip-path:url(#SVGID_2_);}
	.st2{fill-rule:evenodd;clip-rule:evenodd;fill:#FFFFFF;}
	.st3{fill-rule:evenodd;clip-rule:evenodd;fill:#595A5C;fill-opacity:0.1;}
	.st4{fill:#595A5C;}
	.st5{clip-path:url(#SVGID_4_);}
	.st6{clip-path:url(#SVGID_6_);}
	.st7{clip-path:url(#SVGID_8_);fill:none;stroke:#FFFFFF;stroke-miterlimit:10;}
	.st8{fill:#575756;}
	.st9{clip-path:url(#SVGID_10_);}
	.st10{clip-path:url(#SVGID_12_);}
	.st11{opacity:0.5;fill-rule:evenodd;clip-rule:evenodd;fill:#575756;}
	.st12{clip-path:url(#SVGID_14_);}
	.st13{fill:#43403E;}
	.st14{clip-path:url(#SVGID_16_);fill:#FFFFFF;}
	.st15{clip-path:url(#SVGID_18_);fill:#FFFFFF;}
	.st16{clip-path:url(#SVGID_20_);fill:#FFFFFF;}
	.st17{clip-path:url(#SVGID_22_);fill:#FFFFFF;}
	.st18{fill:#55514F;}
	.st19{fill-rule:evenodd;clip-rule:evenodd;fill:#595A5C;}
	.st20{fill-rule:evenodd;clip-rule:evenodd;fill:#DB2329;}
	.st21{fill:#E52629;}
	.st22{fill:#932D88;}
	.st23{fill:none;}
	.st24{fill-rule:evenodd;clip-rule:evenodd;fill:#E52629;}
	.st25{fill:#323189;}
	.st26{fill:#BBCF20;}
	.st27{fill:#D60F81;}
	.st28{fill:#DC7519;}
	.st29{fill:#010202;}
	.st30{fill-rule:evenodd;clip-rule:evenodd;fill:#010202;}
	.st31{fill-rule:evenodd;clip-rule:evenodd;fill:#932D88;}
	.st32{fill:#F8F7F7;}
	.st33{fill-rule:evenodd;clip-rule:evenodd;fill:#A6C83F;}
	.st34{fill:#91D4F4;}
	.st35{fill-rule:evenodd;clip-rule:evenodd;fill:#29ABE3;}
	.st36{fill:#231F20;}
	.st37{fill-rule:evenodd;clip-rule:evenodd;fill:#BBBDC0;}
	.st38{fill-rule:evenodd;clip-rule:evenodd;fill:#09A650;}
	.st39{fill:#29ABE3;}
	.st40{fill:#A6C83F;}
	.st41{opacity:0.5;}
	.st42{opacity:0.5;fill-rule:evenodd;clip-rule:evenodd;fill:#595A5C;}
	.st43{fill:#DB2329;}
</style>
<path class="st0" d="M64.1,88.7l-40.6-7.2L9.5,42.9l26.5-31.5l40.6,7.2l14.1,38.7L64.1,88.7z"/>
<path class="st40" d="M65.4,92.3l-44.3-7.8L5.7,42.2L34.6,7.7l44.3,7.8l15.4,42.3L65.4,92.3z M25.8,78.9l37.1,6.5l24.2-28.9
	L74.2,21.1l-37.1-6.5L12.9,43.5L25.8,78.9z"/>
<g>
	<path class="st34" d="M49.4,32.5c0.9,3.7,1.9,6.7,3,9c1.1,2.2,2.8,4.6,5.1,7.2l1,1.1c3,3.3,4.5,6.7,4.5,10c0,3.7-1.4,6.9-4,9.5
		c-2.7,2.6-5.9,3.9-9.6,3.9c-3.7,0-6.9-1.4-9.6-3.9c-2.7-2.7-4-5.9-4-9.5c0-3.3,1.5-6.7,4.5-10l1-1.1c2.3-2.6,4.1-5,5.1-7.2
		C47.5,39.2,48.6,36.2,49.4,32.5z"/>
</g>
<g>
	<path class="st34" d="M65.5,32.3c1.1,2.1,2.1,3.8,3.1,4.9c1,1.2,2.4,2.4,4.1,3.6l0.7,0.5c2.3,1.6,3.7,3.4,4.2,5.4
		c0.5,2.2,0.2,4.3-1,6.3c-1.3,2-3,3.2-5.2,3.8c-2.2,0.5-4.3,0.2-6.3-1c-2-1.2-3.3-2.9-3.8-5.2c-0.5-2-0.1-4.3,1.3-6.7l0.4-0.8
		c1-1.9,1.7-3.6,2-5.1C65.3,36.6,65.5,34.6,65.5,32.3z"/>
</g>
<g>
	<path class="st34" d="M30.7,43.6c0.1,1.8,0.3,3.2,0.7,4.3c0.3,1.1,0.9,2.3,1.7,3.7l0.3,0.6c1.1,1.8,1.5,3.4,1.2,4.9
		c-0.3,1.7-1.2,3-2.6,4c-1.4,1-3,1.3-4.7,1c-1.7-0.3-3-1.2-4-2.6c-1-1.4-1.3-3-1-4.7c0.3-1.5,1.2-2.9,2.9-4.2l0.5-0.4
		c1.3-1,2.3-2,2.9-2.9C29.3,46.5,30,45.2,30.7,43.6z"/>
</g>
<g>
	<path class="st34" d="M40.8,26.7c0.4,1.4,0.8,2.6,1.2,3.4c0.4,0.8,1.1,1.8,2,2.8l0.4,0.4c1.2,1.3,1.8,2.6,1.8,3.9
		c0,1.4-0.5,2.7-1.5,3.7c-1,1-2.2,1.6-3.7,1.6c-1.4,0-2.7-0.5-3.7-1.5c-1-1-1.6-2.2-1.6-3.7c0-1.3,0.6-2.6,1.7-3.9l0.4-0.4
		c0.9-1,1.5-2,1.9-2.8C40.2,29.3,40.5,28.1,40.8,26.7z"/>
</g>
</svg>
