<?xml version="1.0" encoding="utf-8"?>
<!-- Generator: Adobe Illustrator 20.1.0, SVG Export Plug-In . SVG Version: 6.00 Build 0)  -->
<svg version="1.1" id="Ebene_1" xmlns="http://www.w3.org/2000/svg" xmlns:xlink="http://www.w3.org/1999/xlink" x="0px" y="0px"
	 viewBox="0 0 100 100" style="enable-background:new 0 0 100 100;" xml:space="preserve">
<style type="text/css">
	.st0{fill:#FFFFFF;}
	.st1{clip-path:url(#SVGID_2_);}
	.st2{fill-rule:evenodd;clip-rule:evenodd;fill:#FFFFFF;}
	.st3{fill-rule:evenodd;clip-rule:evenodd;fill:#595A5C;fill-opacity:0.1;}
	.st4{fill:#595A5C;}
	.st5{clip-path:url(#SVGID_4_);}
	.st6{clip-path:url(#SVGID_6_);}
	.st7{clip-path:url(#SVGID_8_);fill:none;stroke:#FFFFFF;stroke-miterlimit:10;}
	.st8{fill:#575756;}
	.st9{clip-path:url(#SVGID_10_);}
	.st10{clip-path:url(#SVGID_12_);}
	.st11{opacity:0.5;fill-rule:evenodd;clip-rule:evenodd;fill:#575756;}
	.st12{clip-path:url(#SVGID_14_);}
	.st13{fill:#43403E;}
	.st14{clip-path:url(#SVGID_16_);fill:#FFFFFF;}
	.st15{clip-path:url(#SVGID_18_);fill:#FFFFFF;}
	.st16{clip-path:url(#SVGID_20_);fill:#FFFFFF;}
	.st17{clip-path:url(#SVGID_22_);fill:#FFFFFF;}
	.st18{fill:#55514F;}
	.st19{fill-rule:evenodd;clip-rule:evenodd;fill:#595A5C;}
	.st20{fill-rule:evenodd;clip-rule:evenodd;fill:#DB2329;}
	.st21{fill:#E52629;}
	.st22{fill:#932D88;}
	.st23{fill:none;}
	.st24{fill-rule:evenodd;clip-rule:evenodd;fill:#E52629;}
	.st25{fill:#323189;}
	.st26{fill:#BBCF20;}
	.st27{fill:#D60F81;}
	.st28{fill:#DC7519;}
	.st29{fill:#010202;}
	.st30{fill-rule:evenodd;clip-rule:evenodd;fill:#010202;}
	.st31{fill-rule:evenodd;clip-rule:evenodd;fill:#932D88;}
	.st32{fill:#F8F7F7;}
	.st33{fill-rule:evenodd;clip-rule:evenodd;fill:#A6C83F;}
	.st34{fill:#91D4F4;}
	.st35{fill-rule:evenodd;clip-rule:evenodd;fill:#29ABE3;}
	.st36{fill:#231F20;}
	.st37{fill-rule:evenodd;clip-rule:evenodd;fill:#BBBDC0;}
	.st38{fill-rule:evenodd;clip-rule:evenodd;fill:#09A650;}
	.st39{fill:#29ABE3;}
	.st40{fill:#A6C83F;}
	.st41{opacity:0.5;}
	.st42{opacity:0.5;fill-rule:evenodd;clip-rule:evenodd;fill:#595A5C;}
	.st43{fill:#DB2329;}
</style>
<path class="st0" d="M64.1,88.7l-40.6-7.2L9.5,42.9l26.5-31.5l40.6,7.2l14.1,38.7L64.1,88.7z"/>
<path class="st39" d="M65.4,92.3l-44.3-7.8L5.7,42.2L34.6,7.7l44.3,7.8l15.4,42.3L65.4,92.3z M25.8,78.9l37.1,6.5l24.2-28.9
	L74.2,21.1l-37.1-6.5L12.9,43.5L25.8,78.9z"/>
<g>
	<polygon class="st34" points="48.7,77 48.7,68.5 41.3,72.7 39.9,70.3 48.7,65.3 48.7,52.3 37.4,58.8 37.4,68.9 34.6,68.9 
		34.6,60.4 27.3,64.7 26,62.3 33.3,58 26,53.8 27.3,51.5 36,56.5 47.3,50 36,43.5 27.3,48.5 26,46.2 33.3,41.9 26,37.7 27.3,35.3 
		34.6,39.6 34.6,31.1 37.4,31.1 37.4,41.2 48.7,47.7 48.7,34.6 39.9,29.6 41.3,27.3 48.7,31.5 48.7,23 51.3,23 51.3,31.5 58.7,27.3 
		60.1,29.6 51.3,34.6 51.3,47.7 62.6,41.2 62.6,31.1 65.3,31.1 65.3,39.6 72.7,35.3 74,37.7 66.7,41.9 74,46.2 72.7,48.5 64,43.5 
		52.7,50 64,56.5 72.7,51.5 74,53.8 66.7,58 74,62.3 72.7,64.7 65.3,60.4 65.3,68.9 62.6,68.9 62.6,58.8 51.3,52.3 51.3,65.3 
		60.1,70.3 58.7,72.7 51.3,68.5 51.3,77 	"/>
</g>
</svg>
