<?xml version="1.0" encoding="utf-8"?>
<!-- Generator: Adobe Illustrator 20.1.0, SVG Export Plug-In . SVG Version: 6.00 Build 0)  -->
<svg version="1.1" id="Ebene_1" xmlns="http://www.w3.org/2000/svg" xmlns:xlink="http://www.w3.org/1999/xlink" x="0px" y="0px"
	 viewBox="0 50 100 50" style="enable-background:new 0 50 100 50;" xml:space="preserve">
<style type="text/css">
	.st0{fill:#FFFFFF;}
	.st1{clip-path:url(#SVGID_2_);}
	.st2{fill-rule:evenodd;clip-rule:evenodd;fill:#FFFFFF;}
	.st3{fill-rule:evenodd;clip-rule:evenodd;fill:#595A5C;fill-opacity:0.1;}
	.st4{fill:#595A5C;}
	.st5{clip-path:url(#SVGID_4_);}
	.st6{clip-path:url(#SVGID_6_);}
	.st7{clip-path:url(#SVGID_8_);fill:none;stroke:#FFFFFF;stroke-miterlimit:10;}
	.st8{fill:#575756;}
	.st9{clip-path:url(#SVGID_10_);}
	.st10{clip-path:url(#SVGID_12_);}
	.st11{opacity:0.5;fill-rule:evenodd;clip-rule:evenodd;fill:#575756;}
	.st12{clip-path:url(#SVGID_14_);}
	.st13{fill:#43403E;}
	.st14{clip-path:url(#SVGID_16_);fill:#FFFFFF;}
	.st15{clip-path:url(#SVGID_18_);fill:#FFFFFF;}
	.st16{clip-path:url(#SVGID_20_);fill:#FFFFFF;}
	.st17{clip-path:url(#SVGID_22_);fill:#FFFFFF;}
	.st18{fill:#55514F;}
	.st19{fill-rule:evenodd;clip-rule:evenodd;fill:#595A5C;}
	.st20{fill-rule:evenodd;clip-rule:evenodd;fill:#DB2329;}
	.st21{fill:#E52629;}
	.st22{fill:#932D88;}
	.st23{fill:none;}
	.st24{fill-rule:evenodd;clip-rule:evenodd;fill:#E52629;}
	.st25{fill:#323189;}
	.st26{fill:#BBCF20;}
	.st27{fill:#D60F81;}
	.st28{fill:#DC7519;}
	.st29{fill:#010202;}
	.st30{fill-rule:evenodd;clip-rule:evenodd;fill:#010202;}
	.st31{fill-rule:evenodd;clip-rule:evenodd;fill:#932D88;}
	.st32{fill:#F8F7F7;}
	.st33{fill-rule:evenodd;clip-rule:evenodd;fill:#A6C83F;}
	.st34{fill:#91D4F4;}
	.st35{fill-rule:evenodd;clip-rule:evenodd;fill:#29ABE3;}
	.st36{fill:#231F20;}
	.st37{fill-rule:evenodd;clip-rule:evenodd;fill:#BBBDC0;}
	.st38{fill-rule:evenodd;clip-rule:evenodd;fill:#09A650;}
	.st39{fill:#29ABE3;}
	.st40{fill:#A6C83F;}
	.st41{opacity:0.5;}
	.st42{opacity:0.5;fill-rule:evenodd;clip-rule:evenodd;fill:#595A5C;}
	.st43{fill:#DB2329;}
	.st44{opacity:0.5;fill:none;stroke:#595A5C;stroke-width:0.5;stroke-miterlimit:10;}
</style>
<path class="st4" d="M39,65.5V71h-0.5v21.6l29.8,0.1c0,0.2-0.1,0.5-0.1,0.7H37.9h-2.4h-1.7c0-0.2-0.1-0.4-0.1-0.6h4.2V71H25.2
	l-7.9,10.3v6.4L16.1,89v3.8l4.6,0h1.6c0,0.2-0.1,0.4-0.1,0.6h-6.2l0.1,2.3h6.3c0.7,2.5,2.9,4.3,5.6,4.3c2.7,0,5-1.8,5.6-4.3h1.9h0.9
	h31.9c0.7,2.5,2.9,4.3,5.6,4.3c2.7,0,5-1.8,5.6-4.3h4.2v-1.3l0-0.4v-0.6h-4.1c0-0.2-0.1-0.4-0.1-0.6h4.2V71v-5.5H39z M21,80.9
	l5.3-7.4h9.3v7.4H21z"/>
</svg>
